<svg xmlns="http://www.w3.org/2000/svg" xmlns:xlink="http://www.w3.org/1999/xlink" width="500" zoomAndPan="magnify" viewBox="0 0 375 374.999991" height="500" preserveAspectRatio="xMidYMid meet" version="1.0"><defs><clipPath id="4f9d697924"><path d="M 51.179688 78.023438 L 324 78.023438 L 324 268.523438 L 51.179688 268.523438 Z M 51.179688 78.023438 " clip-rule="nonzero"/></clipPath><clipPath id="711dc7cfeb"><path d="M 46.734375 158.683594 L 188.371094 158.683594 L 188.371094 296.675781 L 46.734375 296.675781 Z M 46.734375 158.683594 " clip-rule="nonzero"/></clipPath><clipPath id="296759a9b7"><path d="M 194.257812 158.683594 L 327.984375 158.683594 L 327.984375 296.675781 L 194.257812 296.675781 Z M 194.257812 158.683594 " clip-rule="nonzero"/></clipPath><clipPath id="f3bbd3dccf"><path d="M 106.9375 147.753906 L 145.394531 147.753906 L 145.394531 186.210938 L 106.9375 186.210938 Z M 106.9375 147.753906 " clip-rule="nonzero"/></clipPath><clipPath id="d68a4c6cc8"><path d="M 126.164062 147.753906 C 115.546875 147.753906 106.9375 156.363281 106.9375 166.984375 C 106.9375 177.601562 115.546875 186.210938 126.164062 186.210938 C 136.785156 186.210938 145.394531 177.601562 145.394531 166.984375 C 145.394531 156.363281 136.785156 147.753906 126.164062 147.753906 Z M 126.164062 147.753906 " clip-rule="nonzero"/></clipPath><clipPath id="7d88aeb20c"><path d="M 230.757812 147.753906 L 269.214844 147.753906 L 269.214844 186.210938 L 230.757812 186.210938 Z M 230.757812 147.753906 " clip-rule="nonzero"/></clipPath><clipPath id="30371bbd87"><path d="M 249.988281 147.753906 C 239.367188 147.753906 230.757812 156.363281 230.757812 166.984375 C 230.757812 177.601562 239.367188 186.210938 249.988281 186.210938 C 260.605469 186.210938 269.214844 177.601562 269.214844 166.984375 C 269.214844 156.363281 260.605469 147.753906 249.988281 147.753906 Z M 249.988281 147.753906 " clip-rule="nonzero"/></clipPath><clipPath id="ce769e2377"><path d="M 110.023438 150.839844 L 142.273438 150.839844 L 142.273438 183.089844 L 110.023438 183.089844 Z M 110.023438 150.839844 " clip-rule="nonzero"/></clipPath><clipPath id="189a4b12f5"><path d="M 233.847656 150.839844 L 266.097656 150.839844 L 266.097656 183.089844 L 233.847656 183.089844 Z M 233.847656 150.839844 " clip-rule="nonzero"/></clipPath></defs><g clip-path="url(#4f9d697924)"><path fill="#fa9e00" d="M 248.582031 150.332031 C 249.363281 150.332031 250.144531 150.390625 250.925781 150.5 C 249.195312 152.175781 248.136719 154.519531 248.136719 157.085938 C 248.136719 162.164062 252.265625 166.238281 257.289062 166.238281 C 260.636719 166.238281 263.539062 164.453125 265.160156 161.773438 C 265.882812 163.726562 266.332031 165.847656 266.332031 168.082031 C 266.332031 177.902344 258.347656 185.828125 248.582031 185.828125 C 238.761719 185.828125 230.835938 177.847656 230.835938 168.082031 C 230.777344 158.316406 238.761719 150.332031 248.582031 150.332031 Z M 201.980469 182.257812 C 220.007812 151.339844 243.449219 132.921875 271.074219 130.351562 C 298.699219 127.839844 321.414062 110.371094 323.816406 78.167969 C 306.90625 99.601562 264.265625 100.660156 232.398438 103.5625 C 201.476562 106.464844 181.664062 136.046875 201.980469 182.257812 Z M 173.015625 182.257812 C 154.988281 151.394531 131.546875 132.921875 103.921875 130.410156 C 76.292969 127.839844 53.578125 110.371094 51.179688 78.226562 C 68.089844 99.65625 110.730469 100.71875 142.542969 103.621094 C 173.515625 106.464844 193.328125 136.046875 173.015625 182.257812 Z M 160.121094 189.734375 C 118.597656 215.96875 74.171875 194.535156 90.75 145.03125 C 80.144531 143.582031 68.203125 138.78125 54.917969 130.6875 C 58.714844 137.886719 65.96875 144.25 76.683594 149.886719 C 58.546875 207.875 123.285156 233.546875 160.121094 189.734375 Z M 126.414062 150.332031 C 125.632812 150.332031 124.847656 150.390625 124.066406 150.5 C 125.796875 152.175781 126.859375 154.519531 126.859375 157.085938 C 126.859375 162.164062 122.730469 166.238281 117.707031 166.238281 C 114.355469 166.238281 111.453125 164.453125 109.835938 161.773438 C 109.109375 163.726562 108.664062 165.847656 108.664062 168.082031 C 108.664062 177.902344 116.644531 185.828125 126.414062 185.828125 C 136.234375 185.828125 144.160156 177.847656 144.160156 168.082031 C 144.214844 158.316406 136.234375 150.332031 126.414062 150.332031 Z M 187.523438 189.960938 C 180.996094 199.78125 172.957031 207.148438 163.472656 212.171875 L 187.523438 268.375 L 211.578125 212.171875 C 202.035156 207.203125 194 199.78125 187.523438 189.960938 Z M 214.871094 189.734375 C 251.652344 233.546875 316.449219 207.820312 298.308594 149.886719 C 309.082031 144.25 316.335938 137.886719 320.078125 130.6875 C 306.792969 138.78125 294.851562 143.582031 284.246094 145.03125 C 300.878906 194.589844 256.394531 215.96875 214.871094 189.734375 Z M 214.871094 189.734375 " fill-opacity="1" fill-rule="evenodd"/></g><g clip-path="url(#711dc7cfeb)"><path fill="#fa9e00" d="M 130.078125 257.796875 L 129.710938 257.4375 C 119.753906 264.761719 107.421875 269.09375 94.066406 269.09375 C 81.546875 269.09375 69.929688 265.285156 60.324219 258.78125 C 70.824219 275.167969 82.527344 283.351562 95.421875 283.351562 C 105.976562 283.351562 116.800781 277.71875 127.925781 266.457031 L 128.632812 266.457031 L 130.078125 267.148438 Z M 130.078125 245.007812 L 129.910156 245.070312 C 121.910156 248.703125 112.972656 250.738281 103.535156 250.738281 C 78.128906 250.738281 56.308594 236.007812 46.851562 214.972656 L 46.734375 214.972656 C 56.75 246.125 71.855469 261.703125 92.085938 261.703125 L 97.511719 261.703125 C 106.414062 261.703125 116.292969 258.296875 127.25 251.519531 C 128.203125 252.320312 129.144531 253.101562 130.078125 253.871094 Z M 130.078125 233.847656 C 127.179688 234.128906 124.230469 234.277344 121.234375 234.277344 C 103.363281 234.277344 86.988281 229.085938 74.285156 220.472656 C 72.1875 219.136719 70.199219 217.625 68.3125 215.945312 C 58.796875 207.878906 52.078125 197.636719 49.398438 186.242188 L 49.398438 187.324219 C 49.398438 191.472656 49.636719 194.640625 50.105469 196.796875 C 55.875 228.359375 73.945312 244.136719 104.222656 244.136719 C 111.164062 244.136719 119.777344 242.785156 130.078125 240.082031 Z M 130.078125 222.398438 L 130.078125 228.527344 L 119.734375 228.527344 C 77.480469 228.527344 46.25 201.273438 58.042969 158.683594 C 64.703125 193.359375 94.078125 219.96875 130.078125 222.398438 Z M 130.078125 289.839844 C 127.355469 294.589844 123.1875 296.964844 117.597656 296.964844 L 112.167969 296.964844 C 108.253906 296.964844 102.382812 295.351562 94.550781 292.117188 C 108.515625 290.1875 120.941406 283.480469 130.078125 273.722656 Z M 188.308594 283.351562 L 188.078125 283.351562 C 187.300781 283.140625 186.527344 282.925781 185.765625 282.699219 C 186.609375 282.929688 187.457031 283.148438 188.308594 283.351562 Z M 130.078125 228.527344 L 137.398438 228.527344 L 138.714844 229.199219 C 144.480469 241.84375 151.695312 252.464844 160.328125 261.027344 C 166.300781 267.945312 173.09375 273.347656 180.71875 277.242188 C 161.84375 264.996094 148.265625 245.277344 144.191406 222.273438 C 144.144531 222.21875 144.09375 222.167969 144.046875 222.117188 C 141.230469 222.421875 138.371094 222.582031 135.472656 222.582031 C 133.660156 222.582031 131.863281 222.519531 130.078125 222.398438 Z M 130.078125 240.082031 C 130.933594 239.859375 131.800781 239.625 132.679688 239.382812 C 133.859375 243.464844 138.78125 249.800781 147.480469 258.332031 C 154.894531 267.199219 164.109375 274.03125 175.136719 278.847656 C 156.980469 270.578125 142.867188 254.972656 136.59375 235.816406 C 136.246094 234.929688 135.914062 234.035156 135.597656 233.132812 C 133.78125 233.425781 131.941406 233.664062 130.078125 233.847656 Z M 130.078125 253.871094 L 130.078125 245.007812 L 130.324219 244.914062 C 135.785156 255.089844 143.410156 263.929688 152.585938 270.816406 C 145.671875 266.183594 138.171875 260.535156 130.078125 253.871094 Z M 130.078125 267.148438 C 146.980469 275.21875 160.691406 281.058594 171.183594 284.730469 L 172.566406 284.730469 L 172.566406 284.023438 C 155.449219 277.289062 141.273438 268.535156 130.078125 257.796875 Z M 130.921875 272.804688 C 148.199219 280.429688 159.78125 285.378906 165.609375 287.59375 L 165.609375 288.199219 L 164.9375 288.199219 L 133.105469 280.78125 C 132.472656 284.414062 131.460938 287.433594 130.078125 289.839844 L 130.078125 273.722656 C 130.363281 273.417969 130.644531 273.113281 130.921875 272.804688 " fill-opacity="1" fill-rule="nonzero"/></g><g clip-path="url(#296759a9b7)"><path fill="#fa9e00" d="M 244.90625 257.796875 L 244.90625 267.148438 C 228.003906 275.21875 214.292969 281.058594 203.800781 284.730469 L 202.417969 284.730469 L 202.417969 284.023438 C 219.535156 277.289062 233.707031 268.535156 244.90625 257.796875 Z M 244.90625 245.007812 L 244.660156 244.914062 C 239.199219 255.089844 231.574219 263.929688 222.398438 270.816406 C 229.3125 266.183594 236.8125 260.535156 244.90625 253.871094 Z M 244.90625 233.847656 L 244.90625 240.082031 C 244.050781 239.859375 243.183594 239.625 242.304688 239.382812 C 241.125 243.464844 236.203125 249.800781 227.503906 258.332031 C 220.089844 267.199219 210.875 274.03125 199.847656 278.847656 C 218.003906 270.578125 232.117188 254.972656 238.390625 235.816406 C 238.738281 234.929688 239.070312 234.035156 239.386719 233.132812 C 241.203125 233.425781 243.042969 233.664062 244.90625 233.847656 Z M 244.90625 222.398438 L 244.90625 228.527344 L 237.585938 228.527344 L 236.269531 229.199219 C 230.503906 241.84375 223.289062 252.464844 214.65625 261.027344 C 208.683594 267.945312 201.890625 273.347656 194.265625 277.242188 C 213.140625 264.996094 226.71875 245.277344 230.792969 222.273438 C 230.839844 222.21875 230.890625 222.167969 230.9375 222.117188 C 233.753906 222.421875 236.613281 222.582031 239.511719 222.582031 C 241.324219 222.582031 243.121094 222.519531 244.90625 222.398438 Z M 244.0625 272.804688 C 226.785156 280.429688 215.203125 285.378906 209.375 287.59375 L 209.375 288.199219 L 210.046875 288.199219 L 241.875 280.78125 C 242.511719 284.414062 243.523438 287.433594 244.90625 289.839844 L 244.90625 273.722656 C 244.621094 273.417969 244.339844 273.113281 244.0625 272.804688 Z M 244.90625 228.527344 L 244.90625 222.398438 C 280.90625 219.96875 310.28125 193.359375 316.941406 158.683594 C 328.734375 201.273438 297.503906 228.527344 255.25 228.527344 Z M 244.90625 240.082031 L 244.90625 233.847656 C 247.804688 234.128906 250.753906 234.277344 253.75 234.277344 C 271.621094 234.277344 287.996094 229.085938 300.699219 220.472656 C 302.792969 219.136719 304.785156 217.625 306.671875 215.945312 C 316.1875 207.878906 322.90625 197.636719 325.585938 186.242188 L 325.585938 187.324219 C 325.585938 191.472656 325.347656 194.640625 324.875 196.796875 C 319.113281 228.359375 301.039062 244.136719 270.761719 244.136719 C 263.820312 244.136719 255.207031 242.785156 244.90625 240.082031 Z M 244.90625 253.871094 C 245.839844 253.101562 246.78125 252.320312 247.734375 251.519531 C 258.691406 258.296875 268.570312 261.703125 277.472656 261.703125 L 282.898438 261.703125 C 303.128906 261.703125 318.234375 246.125 328.25 214.972656 L 328.132812 214.972656 C 318.675781 236.007812 296.855469 250.738281 271.449219 250.738281 C 262.011719 250.738281 253.074219 248.703125 245.074219 245.070312 L 244.90625 245.007812 Z M 244.90625 267.148438 L 244.90625 257.796875 L 245.273438 257.4375 C 255.230469 264.761719 267.5625 269.09375 280.917969 269.09375 C 293.4375 269.09375 305.054688 265.285156 314.660156 258.78125 C 304.160156 275.167969 292.457031 283.351562 279.5625 283.351562 C 269.007812 283.351562 258.183594 277.71875 247.058594 266.457031 L 246.351562 266.457031 Z M 244.90625 289.839844 C 247.628906 294.589844 251.792969 296.964844 257.386719 296.964844 L 262.816406 296.964844 C 266.730469 296.964844 272.601562 295.351562 280.433594 292.117188 C 266.464844 290.1875 254.042969 283.480469 244.90625 273.722656 L 244.90625 289.839844 " fill-opacity="1" fill-rule="nonzero"/></g><g clip-path="url(#f3bbd3dccf)"><g clip-path="url(#d68a4c6cc8)"><path fill="#fa9e00" d="M 106.9375 147.753906 L 145.394531 147.753906 L 145.394531 186.210938 L 106.9375 186.210938 Z M 106.9375 147.753906 " fill-opacity="1" fill-rule="nonzero"/></g></g><g clip-path="url(#7d88aeb20c)"><g clip-path="url(#30371bbd87)"><path fill="#fa9e00" d="M 230.757812 147.753906 L 269.214844 147.753906 L 269.214844 186.210938 L 230.757812 186.210938 Z M 230.757812 147.753906 " fill-opacity="1" fill-rule="nonzero"/></g></g><g clip-path="url(#ce769e2377)"><path fill="#ffffff" d="M 110.023438 166.976562 L 115.710938 165.273438 C 116.746094 164.960938 117.726562 164.53125 118.652344 163.976562 C 119.578125 163.425781 120.421875 162.765625 121.1875 162.003906 C 121.949219 161.238281 122.605469 160.394531 123.160156 159.46875 C 123.714844 158.542969 124.144531 157.5625 124.453125 156.527344 L 126.160156 150.839844 L 127.867188 156.53125 C 128.175781 157.566406 128.609375 158.542969 129.160156 159.472656 C 129.714844 160.398438 130.371094 161.242188 131.136719 162.003906 C 131.898438 162.765625 132.742188 163.425781 133.667969 163.976562 C 134.59375 164.53125 135.574219 164.964844 136.609375 165.273438 L 142.296875 166.976562 L 136.609375 168.683594 C 135.574219 168.996094 134.597656 169.425781 133.671875 169.980469 C 132.742188 170.53125 131.898438 171.191406 131.136719 171.953125 C 130.375 172.714844 129.714844 173.5625 129.164062 174.488281 C 128.609375 175.414062 128.179688 176.394531 127.867188 177.425781 L 126.160156 183.113281 L 124.453125 177.425781 C 124.144531 176.394531 123.710938 175.414062 123.160156 174.488281 C 122.605469 173.5625 121.949219 172.71875 121.183594 171.953125 C 120.421875 171.191406 119.578125 170.535156 118.652344 169.980469 C 117.726562 169.425781 116.746094 168.996094 115.710938 168.6875 Z M 110.023438 166.976562 " fill-opacity="1" fill-rule="nonzero"/></g><g clip-path="url(#189a4b12f5)"><path fill="#ffffff" d="M 233.847656 166.976562 L 239.535156 165.273438 C 240.566406 164.960938 241.546875 164.53125 242.472656 163.976562 C 243.402344 163.425781 244.246094 162.765625 245.007812 162.003906 C 245.769531 161.238281 246.429688 160.394531 246.984375 159.46875 C 247.535156 158.542969 247.96875 157.5625 248.277344 156.527344 L 249.984375 150.839844 L 251.6875 156.53125 C 252 157.566406 252.429688 158.542969 252.984375 159.472656 C 253.535156 160.398438 254.195312 161.242188 254.957031 162.003906 C 255.71875 162.765625 256.566406 163.425781 257.492188 163.976562 C 258.417969 164.53125 259.398438 164.964844 260.429688 165.273438 L 266.121094 166.976562 L 260.433594 168.683594 C 259.398438 168.996094 258.417969 169.425781 257.492188 169.980469 C 256.566406 170.53125 255.722656 171.191406 254.957031 171.953125 C 254.195312 172.714844 253.539062 173.5625 252.984375 174.488281 C 252.433594 175.414062 252 176.394531 251.691406 177.425781 L 249.984375 183.113281 L 248.277344 177.425781 C 247.964844 176.394531 247.535156 175.414062 246.980469 174.488281 C 246.429688 173.5625 245.769531 172.71875 245.007812 171.953125 C 244.246094 171.191406 243.398438 170.535156 242.472656 169.980469 C 241.546875 169.425781 240.566406 168.996094 239.535156 168.6875 Z M 233.847656 166.976562 " fill-opacity="1" fill-rule="nonzero"/></g></svg>